<?xml version="1.0" encoding="utf-8"?>
<!-- Generator: Adobe Illustrator 17.0.0, SVG Export Plug-In . SVG Version: 6.00 Build 0)  -->
<!DOCTYPE svg PUBLIC "-//W3C//DTD SVG 1.1//EN" "http://www.w3.org/Graphics/SVG/1.1/DTD/svg11.dtd">
<svg version="1.1" id="Слой_1" xmlns="http://www.w3.org/2000/svg" xmlns:xlink="http://www.w3.org/1999/xlink" x="0px" y="0px"
	 width="128px" height="64px" viewBox="0 0 128 64" enable-background="new 0 0 128 64" xml:space="preserve">
<g>
	<path fill-rule="evenodd" clip-rule="evenodd" d="M17.323,17.541c-0.303-0.12-0.724-0.184-1.256-0.198
		c-0.532-0.013-1.247-0.018-2.142-0.018h-0.927v5.007h0.271c1.307,0,2.21-0.009,2.71-0.027c0.499-0.019,1.013-0.138,1.531-0.362
		c0.459-0.198,0.789-0.486,1-0.867c0.211-0.38,0.316-0.811,0.316-1.293c0-0.619-0.123-1.1-0.376-1.449
		C18.199,17.981,17.823,17.72,17.323,17.541z"/>
	<path fill-rule="evenodd" clip-rule="evenodd" d="M15.438,13.872c0.344-0.018,0.702-0.11,1.069-0.279
		c0.399-0.188,0.678-0.449,0.83-0.779c0.152-0.335,0.229-0.72,0.229-1.156c0-0.325-0.082-0.656-0.248-0.995
		c-0.165-0.339-0.422-0.587-0.775-0.738c-0.33-0.147-0.72-0.224-1.174-0.238c-0.454-0.014-1.128-0.019-2.022-0.019h-0.349V13.9
		h0.633C14.489,13.9,15.094,13.891,15.438,13.872z"/>
	<path fill-rule="evenodd" clip-rule="evenodd" d="M0,0v32h32V0H0z M23.436,22.497c-0.376,0.752-0.88,1.371-1.518,1.866
		c-0.752,0.591-1.577,1.008-2.481,1.261C18.538,25.876,17.396,26,16.007,26H8V6h7.067c1.468,0,2.582,0.055,3.338,0.17
		c0.758,0.11,1.468,0.343,2.128,0.701c0.715,0.385,1.252,0.903,1.605,1.545c0.353,0.646,0.532,1.389,0.532,2.233
		c0,0.976-0.243,1.843-0.734,2.604c-0.486,0.761-1.16,1.321-2.018,1.683v0.105c1.234,0.262,2.224,0.789,2.967,1.591
		C23.628,17.435,24,18.517,24,19.874C24,20.869,23.812,21.745,23.436,22.497z"/>
</g>
<g>
	<path fill-rule="evenodd" clip-rule="evenodd" d="M48,12.758c1.424,0,2.583-1.151,2.583-2.564c0-1.414-1.158-2.565-2.583-2.565
		c-1.423,0-2.583,1.15-2.583,2.565C45.417,11.608,46.577,12.758,48,12.758z"/>
	<path fill-rule="evenodd" clip-rule="evenodd" d="M32,0v32h32V0H32z M48,4c3.441,0,6.238,2.779,6.238,6.195
		c0,3.415-2.797,6.192-6.238,6.192c-3.44,0-6.238-2.777-6.238-6.192C41.762,6.779,44.56,4,48,4z M54.011,24.902
		c0.714,0.708,0.714,1.857,0,2.566c-0.714,0.709-1.871,0.709-2.583,0l-3.428-3.403l-3.425,3.403C44.217,27.822,43.749,28,43.281,28
		c-0.467,0-0.935-0.177-1.292-0.531c-0.714-0.709-0.714-1.857-0.001-2.566l3.487-3.463c-1.27-0.287-2.494-0.787-3.622-1.49
		c-0.854-0.534-1.11-1.654-0.572-2.502c0.536-0.849,1.664-1.105,2.519-0.571c2.554,1.595,5.843,1.596,8.398,0
		c0.855-0.534,1.983-0.279,2.52,0.571c0.538,0.848,0.281,1.968-0.573,2.502c-1.128,0.704-2.352,1.202-3.622,1.49L54.011,24.902z"/>
</g>
<g>
	<polygon points="40,33.333 54.667,48 40,62.667 40,64 56,48 40,32 	"/>
	<polygon points="1.333,56 16,41.333 30.667,56 32,56 16,40 0,56 	"/>
	<polygon points="94.667,40 80,54.667 65.333,40 64,40 80,56 96,40 	"/>
	<polygon points="120,62.667 105.333,48 120,33.333 120,32 104,48 120,64 	"/>
</g>
</svg>
